<svg xmlns="http://www.w3.org/2000/svg" xmlns:xlink="http://www.w3.org/1999/xlink" viewBox="0 0 128.17 111"><defs><style>.cls-1{fill:url(#Dégradé_sans_nom_8);}.cls-2{fill:#d622ce;}.cls-3,.cls-5{fill:none;stroke-linecap:round;stroke-miterlimit:10;stroke-width:5.67px;}.cls-3{stroke:#d622ce;}.cls-4{fill:#fff;}.cls-5{stroke:#fff;}.cls-6{fill:red;}</style><linearGradient id="Dégradé_sans_nom_8" y1="55.5" x2="128.17" y2="55.5" gradientUnits="userSpaceOnUse"><stop offset="0" stop-color="#1b1464"/><stop offset="1" stop-color="#662d91"/></linearGradient></defs><title>Fichier 5</title><g id="Calque_2" data-name="Calque 2"><g id="Calque_1-2" data-name="Calque 1"><polygon class="cls-1" points="96.13 0 32.04 0 0 55.5 32.04 111 96.13 111 128.17 55.5 96.13 0"/><line class="cls-2" x1="34.59" y1="37" x2="93.59" y2="37"/><line class="cls-3" x1="34.59" y1="37" x2="93.59" y2="37"/><line class="cls-4" x1="34.59" y1="37" x2="93.59" y2="37"/><line class="cls-5" x1="34.59" y1="37" x2="93.59" y2="37"/><line class="cls-2" x1="34.59" y1="56" x2="93.59" y2="56"/><line class="cls-3" x1="34.59" y1="56" x2="93.59" y2="56"/><line class="cls-6" x1="34.59" y1="56" x2="93.59" y2="56"/><line class="cls-5" x1="34.59" y1="56" x2="93.59" y2="56"/><line class="cls-2" x1="34.59" y1="75" x2="93.59" y2="75"/><line class="cls-3" x1="34.59" y1="75" x2="93.59" y2="75"/><line class="cls-6" x1="34.59" y1="75" x2="93.59" y2="75"/><line class="cls-5" x1="34.59" y1="75" x2="93.59" y2="75"/></g></g></svg>