<svg xmlns="http://www.w3.org/2000/svg" xmlns:xlink="http://www.w3.org/1999/xlink" viewBox="0 0 353.59 225"><defs><style>.cls-1{fill:url(#Dégradé_sans_nom_8);}.cls-2{fill:url(#Dégradé_sans_nom_8-2);}.cls-3{fill:url(#Dégradé_sans_nom_8-3);}.cls-4{fill:url(#Dégradé_sans_nom_8-4);}.cls-5{fill:url(#Dégradé_sans_nom_8-5);}.cls-6{fill:url(#Dégradé_sans_nom_8-6);}.cls-7{fill:url(#Dégradé_sans_nom_8-7);}.cls-8{fill:url(#Dégradé_sans_nom_8-8);}.cls-9{fill:url(#Dégradé_sans_nom_8-9);}.cls-10{fill:url(#Dégradé_sans_nom_8-10);}.cls-11{fill:url(#Dégradé_sans_nom_8-11);}.cls-12{fill:url(#Dégradé_sans_nom_8-12);}.cls-13{fill:url(#Dégradé_sans_nom_8-13);}.cls-14{fill:url(#Dégradé_sans_nom_8-14);}.cls-15{fill:url(#Dégradé_sans_nom_8-15);}.cls-16{fill:url(#Dégradé_sans_nom_8-16);}.cls-17{fill:url(#Dégradé_sans_nom_8-17);}.cls-18,.cls-19,.cls-20{stroke:#fff;stroke-linecap:round;stroke-miterlimit:10;stroke-width:5.67px;}.cls-18{fill:url(#Dégradé_sans_nom_8-18);}.cls-19{fill:url(#Dégradé_sans_nom_8-19);}.cls-20{fill:url(#Dégradé_sans_nom_8-20);}</style><linearGradient id="Dégradé_sans_nom_8" y1="101.5" x2="128.17" y2="101.5" gradientUnits="userSpaceOnUse"><stop offset="0" stop-color="#1b1464"/><stop offset="1" stop-color="#662d91"/></linearGradient><linearGradient id="Dégradé_sans_nom_8-2" x1="114.86" y1="169" x2="200.31" y2="169" xlink:href="#Dégradé_sans_nom_8"/><linearGradient id="Dégradé_sans_nom_8-3" x1="114.03" y1="31" x2="167.14" y2="31" xlink:href="#Dégradé_sans_nom_8"/><linearGradient id="Dégradé_sans_nom_8-4" x1="150.56" y1="74" x2="210.61" y2="74" xlink:href="#Dégradé_sans_nom_8"/><linearGradient id="Dégradé_sans_nom_8-5" x1="222.35" y1="132" x2="240.82" y2="132" xlink:href="#Dégradé_sans_nom_8"/><linearGradient id="Dégradé_sans_nom_8-6" x1="216.34" y1="94" x2="264.83" y2="94" xlink:href="#Dégradé_sans_nom_8"/><linearGradient id="Dégradé_sans_nom_8-7" x1="219.5" y1="170.5" x2="250.67" y2="170.5" xlink:href="#Dégradé_sans_nom_8"/><linearGradient id="Dégradé_sans_nom_8-8" x1="186.73" y1="124" x2="214.44" y2="124" xlink:href="#Dégradé_sans_nom_8"/><linearGradient id="Dégradé_sans_nom_8-9" x1="270.02" y1="129" x2="353.59" y2="129" xlink:href="#Dégradé_sans_nom_8"/><linearGradient id="Dégradé_sans_nom_8-10" x1="278.35" y1="189" x2="296.82" y2="189" xlink:href="#Dégradé_sans_nom_8"/><linearGradient id="Dégradé_sans_nom_8-11" x1="75.5" y1="183.5" x2="106.67" y2="183.5" xlink:href="#Dégradé_sans_nom_8"/><linearGradient id="Dégradé_sans_nom_8-12" x1="214.73" y1="57" x2="242.44" y2="57" xlink:href="#Dégradé_sans_nom_8"/><linearGradient id="Dégradé_sans_nom_8-13" x1="205.35" y1="8" x2="223.82" y2="8" xlink:href="#Dégradé_sans_nom_8"/><linearGradient id="Dégradé_sans_nom_8-14" x1="278.35" y1="81" x2="296.82" y2="81" xlink:href="#Dégradé_sans_nom_8"/><linearGradient id="Dégradé_sans_nom_8-15" x1="196.35" y1="209" x2="233.3" y2="209" xlink:href="#Dégradé_sans_nom_8"/><linearGradient id="Dégradé_sans_nom_8-16" x1="245.35" y1="199.6" x2="260.59" y2="199.6" xlink:href="#Dégradé_sans_nom_8"/><linearGradient id="Dégradé_sans_nom_8-17" x1="256.35" y1="155.6" x2="271.59" y2="155.6" xlink:href="#Dégradé_sans_nom_8"/><linearGradient id="Dégradé_sans_nom_8-18" x1="34.59" y1="83" x2="93.59" y2="83" xlink:href="#Dégradé_sans_nom_8"/><linearGradient id="Dégradé_sans_nom_8-19" x1="34.59" y1="102" x2="93.59" y2="102" xlink:href="#Dégradé_sans_nom_8"/><linearGradient id="Dégradé_sans_nom_8-20" x1="34.59" y1="121" x2="93.59" y2="121" xlink:href="#Dégradé_sans_nom_8"/></defs><title>Fichier 1</title><g id="Calque_2" data-name="Calque 2"><g id="Calque_1-2" data-name="Calque 1"><polygon class="cls-1" points="96.13 46 32.04 46 0 101.5 32.04 157 96.13 157 128.17 101.5 96.13 46"/><polygon class="cls-2" points="178.95 132 136.22 132 114.86 169 136.22 206 178.95 206 200.31 169 178.95 132"/><polygon class="cls-3" points="153.87 8 127.31 8 114.03 31 127.31 54 153.87 54 167.14 31 153.87 8"/><polygon class="cls-4" points="195.6 48 165.57 48 150.56 74 165.57 100 195.6 100 210.61 74 195.6 48"/><polygon class="cls-5" points="236.21 124 226.97 124 222.35 132 226.97 140 236.21 140 240.82 132 236.21 124"/><polygon class="cls-6" points="252.71 73 228.46 73 216.34 94 228.46 115 252.71 115 264.83 94 252.71 73"/><polygon class="cls-7" points="242.88 157 227.29 157 219.5 170.5 227.29 184 242.88 184 250.67 170.5 242.88 157"/><polygon class="cls-8" points="207.51 112 193.66 112 186.73 124 193.66 136 207.51 136 214.44 124 207.51 112"/><polygon class="cls-9" points="332.69 93 290.91 93 270.02 129 290.91 165 332.69 165 353.59 129 332.69 93"/><polygon class="cls-10" points="292.2 181 282.97 181 278.35 189 282.97 197 292.2 197 296.82 189 292.2 181"/><polygon class="cls-11" points="98.88 170 83.29 170 75.5 183.5 83.29 197 98.88 197 106.67 183.5 98.88 170"/><polygon class="cls-12" points="235.51 45 221.66 45 214.73 57 221.66 69 235.51 69 242.44 57 235.51 45"/><polygon class="cls-13" points="219.21 0 209.97 0 205.35 8 209.97 16 219.21 16 223.82 8 219.21 0"/><polygon class="cls-14" points="292.2 73 282.97 73 278.35 81 282.97 89 292.2 89 296.82 81 292.2 73"/><polygon class="cls-15" points="224.06 193 205.59 193 196.35 209 205.59 225 224.06 225 233.3 209 224.06 193"/><polygon class="cls-16" points="256.78 193 249.16 193 245.35 199.6 249.16 206.2 256.78 206.2 260.59 199.6 256.78 193"/><polygon class="cls-17" points="267.78 149 260.16 149 256.35 155.6 260.16 162.2 267.78 162.2 271.59 155.6 267.78 149"/><line class="cls-18" x1="34.59" y1="83" x2="93.59" y2="83"/><line class="cls-19" x1="34.59" y1="102" x2="93.59" y2="102"/><line class="cls-20" x1="34.59" y1="121" x2="93.59" y2="121"/></g></g></svg>