<svg xmlns="http://www.w3.org/2000/svg" xmlns:xlink="http://www.w3.org/1999/xlink" viewBox="0 0 214.77 186"><defs><style>.cls-1{fill:url(#Dégradé_sans_nom_7);}.cls-2{fill:aqua;}.cls-3{fill:#fff;}.cls-4{fill:url(#Dégradé_sans_nom_24);}</style><linearGradient id="Dégradé_sans_nom_7" x1="0.58" y1="93" x2="214.2" y2="93" gradientUnits="userSpaceOnUse"><stop offset="0" stop-color="#1b1464"/><stop offset="1" stop-color="#662d91"/></linearGradient><linearGradient id="Dégradé_sans_nom_24" x1="93.77" y1="114.48" x2="192.85" y2="-46.92" gradientUnits="userSpaceOnUse"><stop offset="0" stop-color="#fff" stop-opacity="0.4"/><stop offset="0.04" stop-color="#fff" stop-opacity="0.38"/><stop offset="0.2" stop-color="#fff" stop-opacity="0.33"/><stop offset="0.41" stop-color="#fff" stop-opacity="0.31"/><stop offset="1" stop-color="#fff" stop-opacity="0.3"/></linearGradient></defs><title>Fichier 1floatlogo</title><g id="Calque_2" data-name="Calque 2"><g id="Calque_1-2" data-name="Calque 1"><polygon class="cls-1" points="53.98 185.5 0.58 93 53.98 0.5 160.79 0.5 214.2 93 160.79 185.5 53.98 185.5"/><path class="cls-2" d="M160.5,1l53.12,92L160.5,185H54.27L1.15,93,54.27,1H160.5m.58-1H53.69L0,93l53.69,93H161.08l53.69-93L161.08,0Z"/><g id="Icons"><g id="Black"><path id="Github" class="cls-3" d="M107.75,32A59,59,0,0,0,89.19,146.9c2.94.54,4-1.28,4-2.84,0-1.4,0-5.11-.08-10-16.34,3.56-19.78-7.9-19.78-7.9-2.67-6.81-6.52-8.63-6.52-8.63-5.33-3.65.4-3.58.4-3.58,5.89.42,9,6.07,9,6.07,5.25,9,13.75,6.42,17.1,4.9A12.6,12.6,0,0,1,97,117C84,115.52,70.29,110.47,70.29,87.88a22.85,22.85,0,0,1,6-15.83c-.6-1.49-2.62-7.48.58-15.6,0,0,4.93-1.58,16.14,6a55.6,55.6,0,0,1,29.41,0c11.21-7.62,16.13-6,16.13-6,3.21,8.12,1.19,14.11.58,15.6a22.81,22.81,0,0,1,6,15.83c0,22.64-13.73,27.63-26.81,29.09,2.11,1.82,4,5.41,4,10.92,0,7.87-.08,14.23-.08,16.17,0,1.57,1.06,3.41,4,2.83A59,59,0,0,0,107.75,32"/></g></g><polygon class="cls-4" points="161.08 0 53.69 0 25.39 49 185.39 145 214.77 93 161.08 0"/></g></g></svg>