<svg xmlns="http://www.w3.org/2000/svg" xmlns:xlink="http://www.w3.org/1999/xlink" viewBox="0 0 298.2 258.25"><defs><style>.cls-1{fill:url(#Dégradé_sans_nom_7);}.cls-2{fill:aqua;}.cls-3{fill:none;stroke:#fff;stroke-miterlimit:10;stroke-width:8.5px;}.cls-4{fill:#fff;}.cls-5{fill:url(#Dégradé_sans_nom_24);}</style><linearGradient id="Dégradé_sans_nom_7" x1="0.58" y1="129.12" x2="297.62" y2="129.12" gradientUnits="userSpaceOnUse"><stop offset="0" stop-color="#1b1464"/><stop offset="1" stop-color="#662d91"/></linearGradient><linearGradient id="Dégradé_sans_nom_24" x1="130.48" y1="158.65" x2="266.57" y2="-64.06" gradientUnits="userSpaceOnUse"><stop offset="0" stop-color="#fff" stop-opacity="0.4"/><stop offset="0.04" stop-color="#fff" stop-opacity="0.38"/><stop offset="0.2" stop-color="#fff" stop-opacity="0.33"/><stop offset="0.41" stop-color="#fff" stop-opacity="0.31"/><stop offset="1" stop-color="#fff" stop-opacity="0.3"/></linearGradient></defs><title>Fichier 6floatlogo</title><g id="Calque_2" data-name="Calque 2"><g id="Calque_1-2" data-name="Calque 1"><polygon class="cls-1" points="74.84 257.75 0.58 129.12 74.84 0.5 223.36 0.5 297.62 129.12 223.36 257.75 74.84 257.75"/><path class="cls-2" d="M223.07,1l74,128.12-74,128.13H75.13l-74-128.13L75.13,1H223.07m.58-1H74.55L0,129.12,74.55,258.25h149.1L298.2,129.12,223.65,0Z"/><path class="cls-3" d="M110.94,66h61.21A4,4,0,0,1,175,67.18l18.09,18.09a4,4,0,0,1,1.18,2.84v104a4,4,0,0,1-4,4h-79.3a4,4,0,0,1-4-4V70A4,4,0,0,1,110.94,66Z"/><polyline class="cls-3" points="166.89 66 166.89 93.54 192.65 93.54"/><path class="cls-4" d="M145.82,183.07a14.79,14.79,0,0,1-7,1.45c-10,0-15-8.53-15-19.77,0-13.89,7.39-20.82,15.82-20.8a12.57,12.57,0,0,1,6.66,1.56L145,152.39a10.16,10.16,0,0,0-5-1.29c-4.95,0-9,4.11-9,13.19,0,8.37,3.4,13,8.92,13a12.06,12.06,0,0,0,5-1.05Z"/><path class="cls-4" d="M157.17,184l-9-39.52,7.45,0,3.25,16.83c.92,4.57,1.76,9.15,2.42,14h.1c.69-4.73,1.57-9.43,2.49-13.92l3.48-16.86,7.27,0L165,184.07Z"/><polygon class="cls-5" points="223 1 75.01 1 36 68.53 256.5 200.83 297 129.17 223 1"/></g></g></svg>