<svg xmlns="http://www.w3.org/2000/svg" xmlns:xlink="http://www.w3.org/1999/xlink" viewBox="0 0 124.71 108"><defs><style>.cls-1{fill:url(#Dégradé_sans_nom_7);}.cls-2{fill:aqua;}.cls-3{fill:#fff;}.cls-4{fill:url(#Dégradé_sans_nom_24);}</style><linearGradient id="Dégradé_sans_nom_7" x1="0.58" y1="54" x2="124.13" y2="54" gradientUnits="userSpaceOnUse"><stop offset="0" stop-color="#1b1464"/><stop offset="1" stop-color="#662d91"/></linearGradient><linearGradient id="Dégradé_sans_nom_24" x1="54.31" y1="66.63" x2="111.39" y2="-25.54" gradientUnits="userSpaceOnUse"><stop offset="0" stop-color="#fff" stop-opacity="0.4"/><stop offset="0.04" stop-color="#fff" stop-opacity="0.38"/><stop offset="0.2" stop-color="#fff" stop-opacity="0.33"/><stop offset="0.41" stop-color="#fff" stop-opacity="0.31"/><stop offset="1" stop-color="#fff" stop-opacity="0.3"/></linearGradient></defs><title>Fichier 5floatlogo</title><g id="Calque_2" data-name="Calque 2"><g id="Calque_1-2" data-name="Calque 1"><polygon class="cls-1" points="31.47 107.5 0.58 54 31.47 0.5 93.24 0.5 124.13 54 93.24 107.5 31.47 107.5"/><path class="cls-2" d="M93,1l30.6,53L93,107H31.75L1.15,54,31.75,1H93m.58-1H31.18L0,54l31.18,54H93.53l31.18-54L93.53,0Z"/><path class="cls-3" d="M96.71,36.73c-1.94-3.45-4-4.08-8.32-4.32S73.37,32,64.06,32s-20.09.12-24.36.41-6.37.87-8.33,4.32-3,9.36-3,19.8v0c0,10.39,1,16.36,3,19.76s4.06,4.07,8.33,4.36,15,.4,24.36.4,20.06-.15,24.33-.39,6.38-.92,8.32-4.36,3-9.38,3-19.76v0h0C99.74,46.09,98.72,40.17,96.71,36.73ZM55.12,69.92V43.15L77.43,56.54Z"/><polygon class="cls-4" points="93.03 1 31.56 1 15.35 29.05 106.94 84 123.76 54.23 93.03 1"/></g></g></svg>