<svg xmlns="http://www.w3.org/2000/svg" xmlns:xlink="http://www.w3.org/1999/xlink" viewBox="0 0 124.71 108"><defs><style>.cls-1{fill:url(#Dégradé_sans_nom_7);}.cls-2{fill:aqua;}.cls-3{fill:#fff;}.cls-4{fill:url(#Dégradé_sans_nom_24);}</style><linearGradient id="Dégradé_sans_nom_7" x1="0.58" y1="54" x2="124.13" y2="54" gradientUnits="userSpaceOnUse"><stop offset="0" stop-color="#1b1464"/><stop offset="1" stop-color="#662d91"/></linearGradient><linearGradient id="Dégradé_sans_nom_24" x1="15.35" y1="42.5" x2="143.76" y2="42.5" gradientUnits="userSpaceOnUse"><stop offset="0" stop-color="#fff" stop-opacity="0.4"/><stop offset="0.04" stop-color="#fff" stop-opacity="0.38"/><stop offset="0.2" stop-color="#fff" stop-opacity="0.33"/><stop offset="0.41" stop-color="#fff" stop-opacity="0.31"/><stop offset="1" stop-color="#fff" stop-opacity="0.3"/></linearGradient></defs><title>Fichier 3floatlogo</title><g id="Calque_2" data-name="Calque 2"><g id="Calque_1-2" data-name="Calque 1"><polygon class="cls-1" points="31.47 107.5 0.58 54 31.47 0.5 93.24 0.5 124.13 54 93.24 107.5 31.47 107.5"/><path class="cls-2" d="M93,1l30.6,53L93,107H31.75L1.15,54,31.75,1H93m.58-1H31.18L0,54l31.18,54H93.53l31.18-54L93.53,0Z"/><path class="cls-3" d="M32.35,25.2A6.69,6.69,0,0,1,34.55,20a8,8,0,0,1,5.69-2,7.84,7.84,0,0,1,5.58,2A7.08,7.08,0,0,1,48,25.39a6.61,6.61,0,0,1-2.13,5,8,8,0,0,1-5.76,2.07h-.06a7.67,7.67,0,0,1-5.58-2.07A6.94,6.94,0,0,1,32.35,25.2ZM33.17,80V38.17h13.9V80Zm21.6,0H68.68V56.64a8.88,8.88,0,0,1,.5-3.38,9,9,0,0,1,2.66-3.6,6.81,6.81,0,0,1,4.48-1.48q7,0,7,9.46V80h13.9V56q0-9.27-4.38-14.06a15,15,0,0,0-11.59-4.79,14.21,14.21,0,0,0-12.58,7v.13h-.07l.07-.13V38.17H54.77q.13,2,.13,12.46T54.77,80Z"/><polygon class="cls-4" points="93.03 1 31.56 1 15.35 29.05 106.94 84 123.76 54.23 93.03 1"/></g></g></svg>