<svg xmlns="http://www.w3.org/2000/svg" xmlns:xlink="http://www.w3.org/1999/xlink" viewBox="0 0 229.17 154"><defs><style>.cls-1{fill:url(#Dégradé_sans_nom_10);}.cls-2{fill:url(#Dégradé_sans_nom_10-2);}.cls-3{fill:url(#Dégradé_sans_nom_10-3);}.cls-4{fill:url(#Dégradé_sans_nom_10-4);}.cls-5{fill:url(#Dégradé_sans_nom_10-5);}.cls-6{fill:url(#Dégradé_sans_nom_10-6);}.cls-7{fill:url(#Dégradé_sans_nom_10-7);}.cls-8{fill:url(#Dégradé_sans_nom_10-8);}.cls-9{fill:url(#Dégradé_sans_nom_10-9);}.cls-10{fill:url(#Dégradé_sans_nom_10-10);}.cls-11{fill:url(#Dégradé_sans_nom_10-11);}.cls-12{fill:url(#Dégradé_sans_nom_10-12);}.cls-13{fill:url(#Dégradé_sans_nom_10-13);}.cls-14{fill:url(#Dégradé_sans_nom_10-14);}.cls-15{fill:url(#Dégradé_sans_nom_10-15);}.cls-16{fill:url(#Dégradé_sans_nom_10-16);}.cls-17{fill:url(#Dégradé_sans_nom_10-17);}.cls-18{fill:url(#Dégradé_sans_nom_10-18);}.cls-19{fill:url(#Dégradé_sans_nom_10-19);}.cls-20{fill:url(#Dégradé_sans_nom_10-20);}.cls-21{fill:url(#Dégradé_sans_nom_10-21);}.cls-22{fill:url(#Dégradé_sans_nom_10-22);}.cls-23{fill:url(#Dégradé_sans_nom_10-23);}.cls-24{fill:url(#Dégradé_sans_nom_10-24);}</style><linearGradient id="Dégradé_sans_nom_10" x1="174.46" y1="70" x2="195.25" y2="70" gradientUnits="userSpaceOnUse"><stop offset="0" stop-color="#1b1464"/><stop offset="1" stop-color="#662d91"/></linearGradient><linearGradient id="Dégradé_sans_nom_10-2" x1="179.08" y1="35" x2="190.63" y2="35" xlink:href="#Dégradé_sans_nom_10"/><linearGradient id="Dégradé_sans_nom_10-3" x1="142.54" y1="24.5" x2="162.17" y2="24.5" xlink:href="#Dégradé_sans_nom_10"/><linearGradient id="Dégradé_sans_nom_10-4" x1="169.77" y1="15" x2="185.94" y2="15" xlink:href="#Dégradé_sans_nom_10"/><linearGradient id="Dégradé_sans_nom_10-5" x1="65.77" y1="15" x2="81.94" y2="15" xlink:href="#Dégradé_sans_nom_10"/><linearGradient id="Dégradé_sans_nom_10-6" x1="89.62" y1="8" x2="108.09" y2="8" xlink:href="#Dégradé_sans_nom_10"/><linearGradient id="Dégradé_sans_nom_10-7" x1="118.24" y1="15" x2="127.48" y2="15" xlink:href="#Dégradé_sans_nom_10"/><linearGradient id="Dégradé_sans_nom_10-8" x1="35.93" y1="95" x2="53.78" y2="95" xlink:href="#Dégradé_sans_nom_10"/><linearGradient id="Dégradé_sans_nom_10-9" x1="109" y1="135" x2="136.71" y2="135" xlink:href="#Dégradé_sans_nom_10"/><linearGradient id="Dégradé_sans_nom_10-10" x1="49.77" y1="123" x2="65.94" y2="123" xlink:href="#Dégradé_sans_nom_10"/><linearGradient id="Dégradé_sans_nom_10-11" x1="81.77" y1="126" x2="97.94" y2="126" xlink:href="#Dégradé_sans_nom_10"/><linearGradient id="Dégradé_sans_nom_10-12" x1="39.77" y1="40" x2="55.94" y2="40" xlink:href="#Dégradé_sans_nom_10"/><linearGradient id="Dégradé_sans_nom_10-13" x1="180.46" y1="127" x2="201.25" y2="127" xlink:href="#Dégradé_sans_nom_10"/><linearGradient id="Dégradé_sans_nom_10-14" x1="165.93" y1="139" x2="179.78" y2="139" xlink:href="#Dégradé_sans_nom_10"/><linearGradient id="Dégradé_sans_nom_10-15" x1="138.77" y1="147" x2="154.94" y2="147" xlink:href="#Dégradé_sans_nom_10"/><linearGradient id="Dégradé_sans_nom_10-16" x1="0" y1="66" x2="27.71" y2="66" xlink:href="#Dégradé_sans_nom_10"/><linearGradient id="Dégradé_sans_nom_10-17" x1="30.24" y1="56" x2="39.48" y2="56" xlink:href="#Dégradé_sans_nom_10"/><linearGradient id="Dégradé_sans_nom_10-18" x1="43.24" y1="64" x2="52.48" y2="64" xlink:href="#Dégradé_sans_nom_10"/><linearGradient id="Dégradé_sans_nom_10-19" x1="13.77" y1="95" x2="29.94" y2="95" xlink:href="#Dégradé_sans_nom_10"/><linearGradient id="Dégradé_sans_nom_10-20" x1="28.24" y1="83" x2="37.48" y2="83" xlink:href="#Dégradé_sans_nom_10"/><linearGradient id="Dégradé_sans_nom_10-21" x1="196.77" y1="91" x2="212.94" y2="91" xlink:href="#Dégradé_sans_nom_10"/><linearGradient id="Dégradé_sans_nom_10-22" x1="204.77" y1="44" x2="220.94" y2="44" xlink:href="#Dégradé_sans_nom_10"/><linearGradient id="Dégradé_sans_nom_10-23" x1="209.54" y1="65.5" x2="229.17" y2="65.5" xlink:href="#Dégradé_sans_nom_10"/><linearGradient id="Dégradé_sans_nom_10-24" x1="195.24" y1="60" x2="204.48" y2="60" xlink:href="#Dégradé_sans_nom_10"/></defs><title>Fichier 13</title><g id="Calque_2" data-name="Calque 2"><g id="Calque_1-2" data-name="Calque 1"><polygon class="cls-1" points="190.05 61 179.66 61 174.46 70 179.66 79 190.05 79 195.25 70 190.05 61"/><polygon class="cls-2" points="187.74 30 181.97 30 179.08 35 181.97 40 187.74 40 190.63 35 187.74 30"/><polygon class="cls-3" points="157.26 16 147.45 16 142.54 24.5 147.45 33 157.26 33 162.17 24.5 157.26 16"/><polygon class="cls-4" points="181.9 8 173.81 8 169.77 15 173.81 22 181.9 22 185.94 15 181.9 8"/><polygon class="cls-5" points="77.9 8 69.81 8 65.77 15 69.81 22 77.9 22 81.94 15 77.9 8"/><polygon class="cls-6" points="103.47 0 94.24 0 89.62 8 94.24 16 103.47 16 108.09 8 103.47 0"/><polygon class="cls-7" points="125.17 11 120.55 11 118.24 15 120.55 19 125.17 19 127.47 15 125.17 11"/><polygon class="cls-8" points="53.78 92.61 47.25 86.08 38.32 88.47 35.93 97.39 42.47 103.92 51.39 101.53 53.78 92.61"/><polygon class="cls-9" points="129.78 123 115.93 123 109 135 115.93 147 129.78 147 136.71 135 129.78 123"/><polygon class="cls-10" points="61.9 116 53.81 116 49.77 123 53.81 130 61.9 130 65.94 123 61.9 116"/><polygon class="cls-11" points="93.9 119 85.81 119 81.77 126 85.81 133 93.9 133 97.94 126 93.9 119"/><polygon class="cls-12" points="51.9 33 43.81 33 39.77 40 43.81 47 51.9 47 55.94 40 51.9 33"/><polygon class="cls-13" points="196.05 118 185.66 118 180.46 127 185.66 136 196.05 136 201.25 127 196.05 118"/><polygon class="cls-14" points="176.32 133 169.39 133 165.93 139 169.39 145 176.32 145 179.78 139 176.32 133"/><polygon class="cls-15" points="150.9 140 142.81 140 138.77 147 142.81 154 150.9 154 154.94 147 150.9 140"/><polygon class="cls-16" points="20.79 54 6.93 54 0 66 6.93 78 20.79 78 27.71 66 20.79 54"/><polygon class="cls-17" points="37.17 52 32.55 52 30.24 56 32.55 60 37.17 60 39.48 56 37.17 52"/><polygon class="cls-18" points="50.17 60 45.55 60 43.24 64 45.55 68 50.17 68 52.48 64 50.17 60"/><polygon class="cls-19" points="25.9 88 17.82 88 13.77 95 17.82 102 25.9 102 29.94 95 25.9 88"/><polygon class="cls-20" points="35.17 79 30.55 79 28.24 83 30.55 87 35.17 87 37.48 83 35.17 79"/><polygon class="cls-21" points="208.9 84 200.81 84 196.77 91 200.81 98 208.9 98 212.94 91 208.9 84"/><polygon class="cls-22" points="216.9 37 208.81 37 204.77 44 208.81 51 216.9 51 220.94 44 216.9 37"/><polygon class="cls-23" points="224.26 57 214.45 57 209.54 65.5 214.45 74 224.26 74 229.17 65.5 224.26 57"/><polygon class="cls-24" points="202.17 56 197.55 56 195.24 60 197.55 64 202.17 64 204.47 60 202.17 56"/></g></g></svg>