<svg xmlns="http://www.w3.org/2000/svg" xmlns:xlink="http://www.w3.org/1999/xlink" viewBox="0 0 341.39 141"><defs><style>.cls-1{fill:url(#Dégradé_sans_nom_10);}.cls-2{fill:url(#Dégradé_sans_nom_10-2);}.cls-3{fill:url(#Dégradé_sans_nom_10-3);}.cls-4{fill:url(#Dégradé_sans_nom_10-4);}.cls-5{fill:url(#Dégradé_sans_nom_10-5);}.cls-6{fill:url(#Dégradé_sans_nom_10-6);}.cls-7{fill:url(#Dégradé_sans_nom_10-7);}.cls-8{fill:url(#Dégradé_sans_nom_10-8);}.cls-9{fill:url(#Dégradé_sans_nom_10-9);}.cls-10{fill:url(#Dégradé_sans_nom_10-10);}.cls-11{fill:url(#Dégradé_sans_nom_10-11);}.cls-12{fill:url(#Dégradé_sans_nom_10-12);}.cls-13{fill:url(#Dégradé_sans_nom_10-13);}.cls-14{fill:url(#Dégradé_sans_nom_10-14);}</style><linearGradient id="Dégradé_sans_nom_10" x1="111.69" y1="8" x2="130.17" y2="8" gradientUnits="userSpaceOnUse"><stop offset="0" stop-color="#1b1464"/><stop offset="1" stop-color="#662d91"/></linearGradient><linearGradient id="Dégradé_sans_nom_10-2" x1="173.69" y1="13" x2="192.17" y2="13" xlink:href="#Dégradé_sans_nom_10"/><linearGradient id="Dégradé_sans_nom_10-3" x1="225" y1="6" x2="238.86" y2="6" xlink:href="#Dégradé_sans_nom_10"/><linearGradient id="Dégradé_sans_nom_10-4" x1="20.15" y1="29" x2="31.7" y2="29" xlink:href="#Dégradé_sans_nom_10"/><linearGradient id="Dégradé_sans_nom_10-5" x1="63.69" y1="121" x2="82.17" y2="121" xlink:href="#Dégradé_sans_nom_10"/><linearGradient id="Dégradé_sans_nom_10-6" x1="0" y1="61" x2="13.86" y2="61" xlink:href="#Dégradé_sans_nom_10"/><linearGradient id="Dégradé_sans_nom_10-7" x1="207.15" y1="92" x2="218.7" y2="92" xlink:href="#Dégradé_sans_nom_10"/><linearGradient id="Dégradé_sans_nom_10-8" x1="239.85" y1="109" x2="256.01" y2="109" xlink:href="#Dégradé_sans_nom_10"/><linearGradient id="Dégradé_sans_nom_10-9" x1="218.31" y1="125" x2="227.55" y2="125" xlink:href="#Dégradé_sans_nom_10"/><linearGradient id="Dégradé_sans_nom_10-10" x1="284.38" y1="28" x2="307.48" y2="28" xlink:href="#Dégradé_sans_nom_10"/><linearGradient id="Dégradé_sans_nom_10-11" x1="307.15" y1="108" x2="318.7" y2="108" xlink:href="#Dégradé_sans_nom_10"/><linearGradient id="Dégradé_sans_nom_10-12" x1="334.46" y1="27" x2="341.39" y2="27" xlink:href="#Dégradé_sans_nom_10"/><linearGradient id="Dégradé_sans_nom_10-13" x1="7.31" y1="103" x2="16.55" y2="103" xlink:href="#Dégradé_sans_nom_10"/><linearGradient id="Dégradé_sans_nom_10-14" x1="114.31" y1="137" x2="123.55" y2="137" xlink:href="#Dégradé_sans_nom_10"/></defs><title>Fichier 16</title><g id="Calque_2" data-name="Calque 2"><g id="Calque_1-2" data-name="Calque 1"><polygon class="cls-1" points="125.55 0 116.31 0 111.69 8 116.31 16 125.55 16 130.17 8 125.55 0"/><polygon class="cls-2" points="187.55 5 178.31 5 173.69 13 178.31 21 187.55 21 192.17 13 187.55 5"/><polygon class="cls-3" points="235.39 0 228.46 0 225 6 228.46 12 235.39 12 238.86 6 235.39 0"/><polygon class="cls-4" points="28.82 24 23.04 24 20.16 29 23.04 34 28.82 34 31.7 29 28.82 24"/><polygon class="cls-5" points="77.55 113 68.31 113 63.69 121 68.31 129 77.55 129 82.17 121 77.55 113"/><polygon class="cls-6" points="10.39 55 3.46 55 0 61 3.46 67 10.39 67 13.86 61 10.39 55"/><polygon class="cls-7" points="215.81 87 210.04 87 207.16 92 210.04 97 215.81 97 218.7 92 215.81 87"/><polygon class="cls-8" points="251.97 102 243.89 102 239.84 109 243.89 116 251.97 116 256.01 109 251.97 102"/><polygon class="cls-9" points="225.24 121 220.62 121 218.31 125 220.62 129 225.24 129 227.55 125 225.24 121"/><polygon class="cls-10" points="301.7 18 290.15 18 284.38 28 290.15 38 301.7 38 307.48 28 301.7 18"/><polygon class="cls-11" points="315.81 103 310.04 103 307.15 108 310.04 113 315.81 113 318.7 108 315.81 103"/><polygon class="cls-12" points="339.66 24 336.2 24 334.46 27 336.2 30 339.66 30 341.39 27 339.66 24"/><polygon class="cls-13" points="14.24 99 9.62 99 7.31 103 9.62 107 14.24 107 16.55 103 14.24 99"/><polygon class="cls-14" points="121.24 133 116.62 133 114.31 137 116.62 141 121.24 141 123.55 137 121.24 133"/></g></g></svg>