<svg xmlns="http://www.w3.org/2000/svg" xmlns:xlink="http://www.w3.org/1999/xlink" viewBox="0 0 341.39 161"><defs><style>.cls-1{fill:url(#Dégradé_sans_nom_10);}.cls-2{fill:url(#Dégradé_sans_nom_10-2);}.cls-3{fill:url(#Dégradé_sans_nom_10-3);}.cls-4{fill:url(#Dégradé_sans_nom_10-4);}.cls-5{fill:url(#Dégradé_sans_nom_10-5);}.cls-6{fill:url(#Dégradé_sans_nom_10-6);}.cls-7{fill:url(#Dégradé_sans_nom_10-7);}.cls-8{fill:url(#Dégradé_sans_nom_10-8);}.cls-9{fill:url(#Dégradé_sans_nom_10-9);}.cls-10{fill:url(#Dégradé_sans_nom_10-10);}.cls-11{fill:url(#Dégradé_sans_nom_10-11);}.cls-12{fill:url(#Dégradé_sans_nom_10-12);}.cls-13{fill:url(#Dégradé_sans_nom_10-13);}.cls-14{fill:url(#Dégradé_sans_nom_10-14);}.cls-15{fill:url(#Dégradé_sans_nom_10-15);}.cls-16{fill:url(#Dégradé_sans_nom_10-16);}.cls-17{fill:url(#Dégradé_sans_nom_10-17);}.cls-18{fill:url(#Dégradé_sans_nom_10-18);}.cls-19{fill:url(#Dégradé_sans_nom_10-19);}.cls-20{fill:url(#Dégradé_sans_nom_10-20);}.cls-21{fill:url(#Dégradé_sans_nom_10-21);}.cls-22{fill:url(#Dégradé_sans_nom_10-22);}.cls-23{fill:url(#Dégradé_sans_nom_10-23);}.cls-24{fill:url(#Dégradé_sans_nom_10-24);}.cls-25{fill:url(#Dégradé_sans_nom_10-25);}.cls-26{fill:url(#Dégradé_sans_nom_10-26);}.cls-27{fill:url(#Dégradé_sans_nom_10-27);}.cls-28{fill:url(#Dégradé_sans_nom_10-28);}.cls-29{fill:url(#Dégradé_sans_nom_10-29);}.cls-30{fill:url(#Dégradé_sans_nom_10-30);}.cls-31{fill:url(#Dégradé_sans_nom_10-31);}.cls-32{fill:url(#Dégradé_sans_nom_10-32);}.cls-33{fill:url(#Dégradé_sans_nom_10-33);}.cls-34{fill:url(#Dégradé_sans_nom_10-34);}.cls-35{fill:url(#Dégradé_sans_nom_10-35);}</style><linearGradient id="Dégradé_sans_nom_10" x1="111.69" y1="25" x2="130.17" y2="25" gradientUnits="userSpaceOnUse"><stop offset="0" stop-color="#1b1464"/><stop offset="1" stop-color="#662d91"/></linearGradient><linearGradient id="Dégradé_sans_nom_10-2" x1="173.69" y1="30" x2="192.17" y2="30" xlink:href="#Dégradé_sans_nom_10"/><linearGradient id="Dégradé_sans_nom_10-3" x1="225" y1="23" x2="238.86" y2="23" xlink:href="#Dégradé_sans_nom_10"/><linearGradient id="Dégradé_sans_nom_10-4" x1="207.15" y1="13" x2="218.7" y2="13" xlink:href="#Dégradé_sans_nom_10"/><linearGradient id="Dégradé_sans_nom_10-5" x1="150" y1="18" x2="163.93" y2="18" xlink:href="#Dégradé_sans_nom_10"/><linearGradient id="Dégradé_sans_nom_10-6" x1="42.15" y1="16" x2="53.7" y2="16" xlink:href="#Dégradé_sans_nom_10"/><linearGradient id="Dégradé_sans_nom_10-7" x1="20.15" y1="46" x2="31.7" y2="46" xlink:href="#Dégradé_sans_nom_10"/><linearGradient id="Dégradé_sans_nom_10-8" x1="13" y1="99" x2="26.86" y2="99" xlink:href="#Dégradé_sans_nom_10"/><linearGradient id="Dégradé_sans_nom_10-9" x1="63.69" y1="138" x2="82.17" y2="138" xlink:href="#Dégradé_sans_nom_10"/><linearGradient id="Dégradé_sans_nom_10-10" x1="149" y1="41" x2="162.86" y2="41" xlink:href="#Dégradé_sans_nom_10"/><linearGradient id="Dégradé_sans_nom_10-11" x1="71" y1="16" x2="84.86" y2="16" xlink:href="#Dégradé_sans_nom_10"/><linearGradient id="Dégradé_sans_nom_10-12" x1="127" y1="6" x2="140.86" y2="6" xlink:href="#Dégradé_sans_nom_10"/><linearGradient id="Dégradé_sans_nom_10-13" x1="0" y1="78" x2="13.86" y2="78" xlink:href="#Dégradé_sans_nom_10"/><linearGradient id="Dégradé_sans_nom_10-14" x1="27.54" y1="119" x2="48.32" y2="119" xlink:href="#Dégradé_sans_nom_10"/><linearGradient id="Dégradé_sans_nom_10-15" x1="207.15" y1="109" x2="218.7" y2="109" xlink:href="#Dégradé_sans_nom_10"/><linearGradient id="Dégradé_sans_nom_10-16" x1="224.69" y1="153" x2="243.17" y2="153" xlink:href="#Dégradé_sans_nom_10"/><linearGradient id="Dégradé_sans_nom_10-17" x1="223.31" y1="130" x2="232.55" y2="130" xlink:href="#Dégradé_sans_nom_10"/><linearGradient id="Dégradé_sans_nom_10-18" x1="239.85" y1="126" x2="256.01" y2="126" xlink:href="#Dégradé_sans_nom_10"/><linearGradient id="Dégradé_sans_nom_10-19" x1="218.31" y1="142" x2="227.55" y2="142" xlink:href="#Dégradé_sans_nom_10"/><linearGradient id="Dégradé_sans_nom_10-20" x1="249" y1="18" x2="262.86" y2="18" xlink:href="#Dégradé_sans_nom_10"/><linearGradient id="Dégradé_sans_nom_10-21" x1="303.46" y1="23" x2="310.39" y2="23" xlink:href="#Dégradé_sans_nom_10"/><linearGradient id="Dégradé_sans_nom_10-22" x1="284.38" y1="45" x2="307.48" y2="45" xlink:href="#Dégradé_sans_nom_10"/><linearGradient id="Dégradé_sans_nom_10-23" x1="304" y1="67" x2="317.86" y2="67" xlink:href="#Dégradé_sans_nom_10"/><linearGradient id="Dégradé_sans_nom_10-24" x1="303.31" y1="94" x2="312.55" y2="94" xlink:href="#Dégradé_sans_nom_10"/><linearGradient id="Dégradé_sans_nom_10-25" x1="282" y1="112" x2="295.86" y2="112" xlink:href="#Dégradé_sans_nom_10"/><linearGradient id="Dégradé_sans_nom_10-26" x1="267" y1="130" x2="280.86" y2="130" xlink:href="#Dégradé_sans_nom_10"/><linearGradient id="Dégradé_sans_nom_10-27" x1="275" y1="26" x2="288.86" y2="26" xlink:href="#Dégradé_sans_nom_10"/><linearGradient id="Dégradé_sans_nom_10-28" x1="97.15" y1="132" x2="108.7" y2="132" xlink:href="#Dégradé_sans_nom_10"/><linearGradient id="Dégradé_sans_nom_10-29" x1="135" y1="137" x2="148.86" y2="137" xlink:href="#Dégradé_sans_nom_10"/><linearGradient id="Dégradé_sans_nom_10-30" x1="165.07" y1="137" x2="192.78" y2="137" xlink:href="#Dégradé_sans_nom_10"/><linearGradient id="Dégradé_sans_nom_10-31" x1="206" y1="35" x2="219.86" y2="35" xlink:href="#Dégradé_sans_nom_10"/><linearGradient id="Dégradé_sans_nom_10-32" x1="307.15" y1="125" x2="318.7" y2="125" xlink:href="#Dégradé_sans_nom_10"/><linearGradient id="Dégradé_sans_nom_10-33" x1="334.46" y1="104" x2="341.39" y2="104" xlink:href="#Dégradé_sans_nom_10"/><linearGradient id="Dégradé_sans_nom_10-34" x1="7.31" y1="120" x2="16.55" y2="120" xlink:href="#Dégradé_sans_nom_10"/><linearGradient id="Dégradé_sans_nom_10-35" x1="114.31" y1="154" x2="123.55" y2="154" xlink:href="#Dégradé_sans_nom_10"/></defs><title>Fichier 11</title><g id="Calque_2" data-name="Calque 2"><g id="Calque_1-2" data-name="Calque 1"><polygon class="cls-1" points="125.55 17 116.31 17 111.69 25 116.31 33 125.55 33 130.17 25 125.55 17"/><polygon class="cls-2" points="187.55 22 178.31 22 173.69 30 178.31 38 187.55 38 192.17 30 187.55 22"/><polygon class="cls-3" points="235.39 17 228.46 17 225 23 228.46 29 235.39 29 238.86 23 235.39 17"/><polygon class="cls-4" points="215.81 8 210.04 8 207.16 13 210.04 18 215.81 18 218.7 13 215.81 8"/><polygon class="cls-5" points="160.45 13 153.48 13 150 18 153.48 23 160.45 23 163.93 18 160.45 13"/><polygon class="cls-6" points="50.81 11 45.04 11 42.16 16 45.04 21 50.81 21 53.7 16 50.81 11"/><polygon class="cls-7" points="28.82 41 23.04 41 20.16 46 23.04 51 28.82 51 31.7 46 28.82 41"/><polygon class="cls-8" points="23.39 93 16.46 93 13 99 16.46 105 23.39 105 26.86 99 23.39 93"/><polygon class="cls-9" points="77.55 130 68.31 130 63.69 138 68.31 146 77.55 146 82.17 138 77.55 130"/><polygon class="cls-10" points="159.39 35 152.46 35 149 41 152.46 47 159.39 47 162.86 41 159.39 35"/><polygon class="cls-11" points="81.39 10 74.46 10 71 16 74.46 22 81.39 22 84.86 16 81.39 10"/><polygon class="cls-12" points="137.39 0 130.46 0 127 6 130.46 12 137.39 12 140.86 6 137.39 0"/><polygon class="cls-13" points="10.39 72 3.46 72 0 78 3.46 84 10.39 84 13.86 78 10.39 72"/><polygon class="cls-14" points="43.12 110 32.73 110 27.54 119 32.73 128 43.12 128 48.32 119 43.12 110"/><polygon class="cls-15" points="215.81 104 210.04 104 207.16 109 210.04 114 215.81 114 218.7 109 215.81 104"/><polygon class="cls-16" points="238.55 145 229.31 145 224.69 153 229.31 161 238.55 161 243.17 153 238.55 145"/><polygon class="cls-17" points="230.24 126 225.62 126 223.31 130 225.62 134 230.24 134 232.55 130 230.24 126"/><polygon class="cls-18" points="251.97 119 243.89 119 239.84 126 243.89 133 251.97 133 256.01 126 251.97 119"/><polygon class="cls-19" points="225.24 138 220.62 138 218.31 142 220.62 146 225.24 146 227.55 142 225.24 138"/><polygon class="cls-20" points="259.39 12 252.46 12 249 18 252.46 24 259.39 24 262.86 18 259.39 12"/><polygon class="cls-21" points="308.66 20 305.2 20 303.46 23 305.2 26 308.66 26 310.39 23 308.66 20"/><polygon class="cls-22" points="301.7 35 290.15 35 284.38 45 290.15 55 301.7 55 307.48 45 301.7 35"/><polygon class="cls-23" points="314.39 61 307.46 61 304 67 307.46 73 314.39 73 317.86 67 314.39 61"/><polygon class="cls-24" points="310.24 90 305.62 90 303.31 94 305.62 98 310.24 98 312.55 94 310.24 90"/><polygon class="cls-25" points="292.39 106 285.46 106 282 112 285.46 118 292.39 118 295.86 112 292.39 106"/><polygon class="cls-26" points="277.39 124 270.46 124 267 130 270.46 136 277.39 136 280.86 130 277.39 124"/><polygon class="cls-27" points="285.39 20 278.46 20 275 26 278.46 32 285.39 32 288.86 26 285.39 20"/><polygon class="cls-28" points="105.81 127 100.04 127 97.16 132 100.04 137 105.81 137 108.7 132 105.81 127"/><polygon class="cls-29" points="145.39 131 138.46 131 135 137 138.46 143 145.39 143 148.86 137 145.39 131"/><polygon class="cls-30" points="185.86 125 172 125 165.07 137 172 149 185.86 149 192.78 137 185.86 125"/><polygon class="cls-31" points="216.39 29 209.46 29 206 35 209.46 41 216.39 41 219.86 35 216.39 29"/><polygon class="cls-32" points="315.81 120 310.04 120 307.15 125 310.04 130 315.81 130 318.7 125 315.81 120"/><polygon class="cls-33" points="339.66 101 336.2 101 334.46 104 336.2 107 339.66 107 341.39 104 339.66 101"/><polygon class="cls-34" points="14.24 116 9.62 116 7.31 120 9.62 124 14.24 124 16.55 120 14.24 116"/><polygon class="cls-35" points="121.24 150 116.62 150 114.31 154 116.62 158 121.24 158 123.55 154 121.24 150"/></g></g></svg>