<svg xmlns="http://www.w3.org/2000/svg" xmlns:xlink="http://www.w3.org/1999/xlink" viewBox="0 0 338.9 145"><defs><style>.cls-1{fill:url(#Dégradé_sans_nom_10);}.cls-2{fill:url(#Dégradé_sans_nom_10-2);}.cls-3{fill:url(#Dégradé_sans_nom_10-3);}.cls-4{fill:url(#Dégradé_sans_nom_10-4);}.cls-5{fill:url(#Dégradé_sans_nom_10-5);}.cls-6{fill:url(#Dégradé_sans_nom_10-6);}.cls-7{fill:url(#Dégradé_sans_nom_10-7);}.cls-8{fill:url(#Dégradé_sans_nom_10-8);}.cls-9{fill:url(#Dégradé_sans_nom_10-9);}.cls-10{fill:url(#Dégradé_sans_nom_10-10);}.cls-11{fill:url(#Dégradé_sans_nom_10-11);}.cls-12{fill:url(#Dégradé_sans_nom_10-12);}.cls-13{fill:url(#Dégradé_sans_nom_10-13);}</style><linearGradient id="Dégradé_sans_nom_10" x1="204.66" y1="12" x2="216.21" y2="12" gradientUnits="userSpaceOnUse"><stop offset="0" stop-color="#1b1464"/><stop offset="1" stop-color="#662d91"/></linearGradient><linearGradient id="Dégradé_sans_nom_10-2" x1="10.51" y1="98" x2="24.37" y2="98" xlink:href="#Dégradé_sans_nom_10"/><linearGradient id="Dégradé_sans_nom_10-3" x1="61.2" y1="137" x2="79.68" y2="137" xlink:href="#Dégradé_sans_nom_10"/><linearGradient id="Dégradé_sans_nom_10-4" x1="146.51" y1="40" x2="160.37" y2="40" xlink:href="#Dégradé_sans_nom_10"/><linearGradient id="Dégradé_sans_nom_10-5" x1="68.51" y1="15" x2="82.37" y2="15" xlink:href="#Dégradé_sans_nom_10"/><linearGradient id="Dégradé_sans_nom_10-6" x1="128.51" y1="6" x2="142.37" y2="6" xlink:href="#Dégradé_sans_nom_10"/><linearGradient id="Dégradé_sans_nom_10-7" x1="220.82" y1="129" x2="230.06" y2="129" xlink:href="#Dégradé_sans_nom_10"/><linearGradient id="Dégradé_sans_nom_10-8" x1="246.51" y1="17" x2="260.37" y2="17" xlink:href="#Dégradé_sans_nom_10"/><linearGradient id="Dégradé_sans_nom_10-9" x1="301.51" y1="66" x2="315.37" y2="66" xlink:href="#Dégradé_sans_nom_10"/><linearGradient id="Dégradé_sans_nom_10-10" x1="264.51" y1="129" x2="278.37" y2="129" xlink:href="#Dégradé_sans_nom_10"/><linearGradient id="Dégradé_sans_nom_10-11" x1="94.66" y1="131" x2="106.21" y2="131" xlink:href="#Dégradé_sans_nom_10"/><linearGradient id="Dégradé_sans_nom_10-12" x1="331.97" y1="103" x2="338.9" y2="103" xlink:href="#Dégradé_sans_nom_10"/><linearGradient id="Dégradé_sans_nom_10-13" x1="-0.18" y1="118" x2="9.06" y2="118" gradientTransform="translate(117.92 85.37) rotate(76.11)" xlink:href="#Dégradé_sans_nom_10"/></defs><title>Fichier 14</title><g id="Calque_2" data-name="Calque 2"><g id="Calque_1-2" data-name="Calque 1"><polygon class="cls-1" points="213.32 7 207.55 7 204.66 12 207.55 17 213.32 17 216.21 12 213.32 7"/><polygon class="cls-2" points="20.9 92 13.97 92 10.51 98 13.97 104 20.9 104 24.37 98 20.9 92"/><polygon class="cls-3" points="75.06 129 65.82 129 61.2 137 65.82 145 75.06 145 79.67 137 75.06 129"/><polygon class="cls-4" points="156.9 34 149.97 34 146.51 40 149.97 46 156.9 46 160.37 40 156.9 34"/><polygon class="cls-5" points="78.9 9 71.97 9 68.51 15 71.97 21 78.9 21 82.37 15 78.9 9"/><polygon class="cls-6" points="138.9 0 131.97 0 128.51 6 131.97 12 138.9 12 142.37 6 138.9 0"/><polygon class="cls-7" points="227.75 125 223.13 125 220.82 129 223.13 133 227.75 133 230.06 129 227.75 125"/><polygon class="cls-8" points="256.9 11 249.97 11 246.51 17 249.97 23 256.9 23 260.37 17 256.9 11"/><polygon class="cls-9" points="311.9 60 304.97 60 301.51 66 304.97 72 311.9 72 315.37 66 311.9 60"/><polygon class="cls-10" points="274.9 123 267.97 123 264.51 129 267.97 135 274.9 135 278.37 129 274.9 123"/><polygon class="cls-11" points="103.32 126 97.55 126 94.66 131 97.55 136 103.32 136 106.21 131 103.32 126"/><polygon class="cls-12" points="337.17 100 333.7 100 331.97 103 333.7 106 337.17 106 338.9 103 337.17 100"/><polygon class="cls-13" points="8.88 119.28 7.77 114.8 3.33 113.52 0 116.72 1.11 121.2 5.55 122.48 8.88 119.28"/></g></g></svg>