<svg xmlns="http://www.w3.org/2000/svg" xmlns:xlink="http://www.w3.org/1999/xlink" viewBox="0 0 266 90.97"><defs><style>.cls-1{fill:url(#Dégradé_sans_nom_10);}.cls-2{fill:url(#Dégradé_sans_nom_10-2);}.cls-3{fill:url(#Dégradé_sans_nom_10-3);}.cls-4{fill:url(#Dégradé_sans_nom_10-4);}.cls-5{fill:url(#Dégradé_sans_nom_10-5);}.cls-6{fill:url(#Dégradé_sans_nom_10-6);}.cls-7{fill:url(#Dégradé_sans_nom_10-7);}.cls-8{font-size:70.87px;fill:#fff;font-family:Ailerons-Regular, Ailerons;letter-spacing:-0.12em;}</style><linearGradient id="Dégradé_sans_nom_10" x1="166.14" y1="64" x2="193.86" y2="64" gradientUnits="userSpaceOnUse"><stop offset="0" stop-color="#1b1464"/><stop offset="1" stop-color="#662d91"/></linearGradient><linearGradient id="Dégradé_sans_nom_10-2" x1="182.43" y1="46" x2="266" y2="46" xlink:href="#Dégradé_sans_nom_10"/><linearGradient id="Dégradé_sans_nom_10-3" x1="62.35" y1="39.29" x2="130" y2="39.29" xlink:href="#Dégradé_sans_nom_10"/><linearGradient id="Dégradé_sans_nom_10-4" x1="139.6" y1="32.89" x2="204" y2="32.89" xlink:href="#Dégradé_sans_nom_10"/><linearGradient id="Dégradé_sans_nom_10-5" x1="130.14" y1="27" x2="157.86" y2="27" xlink:href="#Dégradé_sans_nom_10"/><linearGradient id="Dégradé_sans_nom_10-6" x1="93" y1="61" x2="157.19" y2="61" xlink:href="#Dégradé_sans_nom_10"/><linearGradient id="Dégradé_sans_nom_10-7" x1="0" y1="45.49" x2="105.04" y2="45.49" xlink:href="#Dégradé_sans_nom_10"/></defs><title>Fichier 10</title><g id="Calque_2" data-name="Calque 2"><g id="Calque_1-2" data-name="Calque 1"><polygon class="cls-1" points="186.93 52 173.07 52 166.14 64 173.07 76 186.93 76 193.86 64 186.93 52"/><polygon class="cls-2" points="245.11 10 203.32 10 182.43 46 203.32 82 245.11 82 266 46 245.11 10"/><polygon class="cls-3" points="113.09 10 79.26 10 62.35 39.29 79.26 68.59 113.09 68.59 130 39.29 113.09 10"/><polygon class="cls-4" points="187.9 5 155.7 5 139.6 32.89 155.7 60.77 187.9 60.77 204 32.89 187.9 5"/><polygon class="cls-5" points="150.93 15 137.07 15 130.14 27 137.07 39 150.93 39 157.86 27 150.93 15"/><polygon class="cls-6" points="141.14 32 109.05 32 93 61 109.05 90 141.14 90 157.19 61 141.14 32"/><polygon class="cls-7" points="78.78 0 26.26 0 0 45.49 26.26 90.97 78.78 90.97 105.04 45.49 78.78 0"/><text class="cls-8" transform="translate(21 70)">ROBOTIC</text></g></g></svg>