<svg xmlns="http://www.w3.org/2000/svg" xmlns:xlink="http://www.w3.org/1999/xlink" viewBox="0 0 341.39 150"><defs><style>.cls-1{fill:url(#Dégradé_sans_nom_10);}.cls-2{fill:url(#Dégradé_sans_nom_10-2);}.cls-3{fill:url(#Dégradé_sans_nom_10-3);}.cls-4{fill:url(#Dégradé_sans_nom_10-4);}.cls-5{fill:url(#Dégradé_sans_nom_10-5);}.cls-6{fill:url(#Dégradé_sans_nom_10-6);}.cls-7{fill:url(#Dégradé_sans_nom_10-7);}.cls-8{fill:url(#Dégradé_sans_nom_10-8);}.cls-9{fill:url(#Dégradé_sans_nom_10-9);}.cls-10{fill:url(#Dégradé_sans_nom_10-10);}.cls-11{fill:url(#Dégradé_sans_nom_10-11);}.cls-12{fill:url(#Dégradé_sans_nom_10-12);}.cls-13{fill:url(#Dégradé_sans_nom_10-13);}.cls-14{fill:url(#Dégradé_sans_nom_10-14);}.cls-15{fill:url(#Dégradé_sans_nom_10-15);}</style><linearGradient id="Dégradé_sans_nom_10" x1="149" y1="7" x2="162.93" y2="7" gradientUnits="userSpaceOnUse"><stop offset="0" stop-color="#1b1464"/><stop offset="1" stop-color="#662d91"/></linearGradient><linearGradient id="Dégradé_sans_nom_10-2" x1="41.15" y1="5" x2="52.7" y2="5" xlink:href="#Dégradé_sans_nom_10"/><linearGradient id="Dégradé_sans_nom_10-3" x1="62.69" y1="127" x2="81.17" y2="127" xlink:href="#Dégradé_sans_nom_10"/><linearGradient id="Dégradé_sans_nom_10-4" x1="0" y1="37" x2="13.86" y2="37" xlink:href="#Dégradé_sans_nom_10"/><linearGradient id="Dégradé_sans_nom_10-5" x1="26.54" y1="108" x2="47.32" y2="108" xlink:href="#Dégradé_sans_nom_10"/><linearGradient id="Dégradé_sans_nom_10-6" x1="223.69" y1="142" x2="242.17" y2="142" xlink:href="#Dégradé_sans_nom_10"/><linearGradient id="Dégradé_sans_nom_10-7" x1="302.46" y1="12" x2="309.39" y2="12" xlink:href="#Dégradé_sans_nom_10"/><linearGradient id="Dégradé_sans_nom_10-8" x1="302.31" y1="83" x2="311.55" y2="83" xlink:href="#Dégradé_sans_nom_10"/><linearGradient id="Dégradé_sans_nom_10-9" x1="281" y1="101" x2="294.86" y2="101" xlink:href="#Dégradé_sans_nom_10"/><linearGradient id="Dégradé_sans_nom_10-10" x1="274" y1="15" x2="287.86" y2="15" xlink:href="#Dégradé_sans_nom_10"/><linearGradient id="Dégradé_sans_nom_10-11" x1="134" y1="126" x2="147.86" y2="126" xlink:href="#Dégradé_sans_nom_10"/><linearGradient id="Dégradé_sans_nom_10-12" x1="164.07" y1="126" x2="191.78" y2="126" xlink:href="#Dégradé_sans_nom_10"/><linearGradient id="Dégradé_sans_nom_10-13" x1="205" y1="24" x2="218.86" y2="24" xlink:href="#Dégradé_sans_nom_10"/><linearGradient id="Dégradé_sans_nom_10-14" x1="334.46" y1="62" x2="341.39" y2="62" xlink:href="#Dégradé_sans_nom_10"/><linearGradient id="Dégradé_sans_nom_10-15" x1="6.31" y1="109" x2="15.55" y2="109" xlink:href="#Dégradé_sans_nom_10"/></defs><title>Fichier 15</title><g id="Calque_2" data-name="Calque 2"><g id="Calque_1-2" data-name="Calque 1"><polygon class="cls-1" points="159.45 2 152.48 2 149 7 152.48 12 159.45 12 162.93 7 159.45 2"/><polygon class="cls-2" points="49.81 0 44.04 0 41.16 5 44.04 10 49.81 10 52.7 5 49.81 0"/><polygon class="cls-3" points="76.55 119 67.31 119 62.69 127 67.31 135 76.55 135 81.17 127 76.55 119"/><polygon class="cls-4" points="10.39 31 3.46 31 0 37 3.46 43 10.39 43 13.86 37 10.39 31"/><polygon class="cls-5" points="42.12 99 31.73 99 26.54 108 31.73 117 42.12 117 47.32 108 42.12 99"/><polygon class="cls-6" points="237.55 134 228.31 134 223.69 142 228.31 150 237.55 150 242.17 142 237.55 134"/><polygon class="cls-7" points="307.66 9 304.2 9 302.46 12 304.2 15 307.66 15 309.39 12 307.66 9"/><polygon class="cls-8" points="309.24 79 304.62 79 302.31 83 304.62 87 309.24 87 311.55 83 309.24 79"/><polygon class="cls-9" points="291.39 95 284.46 95 281 101 284.46 107 291.39 107 294.86 101 291.39 95"/><polygon class="cls-10" points="284.39 9 277.46 9 274 15 277.46 21 284.39 21 287.86 15 284.39 9"/><polygon class="cls-11" points="144.39 120 137.46 120 134 126 137.46 132 144.39 132 147.86 126 144.39 120"/><polygon class="cls-12" points="184.86 114 171 114 164.07 126 171 138 184.86 138 191.78 126 184.86 114"/><polygon class="cls-13" points="215.39 18 208.46 18 205 24 208.46 30 215.39 30 218.86 24 215.39 18"/><polygon class="cls-14" points="339.66 59 336.2 59 334.46 62 336.2 65 339.66 65 341.39 62 339.66 59"/><polygon class="cls-15" points="13.24 105 8.62 105 6.31 109 8.62 113 13.24 113 15.55 109 13.24 105"/></g></g></svg>